P3
# CREATOR: GIMP PNM Filter Version 1.1
3 3
255
30
30
30
40
40
40
30
50
50
40
30
50
30
40
40
40
50
30
30
30
50
40
40
30
30
50
40
